<?xml version="1.0" encoding="UTF-8"?>
<svg width="35px" height="30px" viewBox="0 0 35 30" version="1.1" xmlns="http://www.w3.org/2000/svg" xmlns:xlink="http://www.w3.org/1999/xlink">
    <!-- Generator: Sketch 52.6 (67491) - http://www.bohemiancoding.com/sketch -->
    <title>logo-obw-mobile</title>
    <desc>Created with Sketch.</desc>
    <g id="Symbols" stroke="none" stroke-width="1" fill="none" fill-rule="evenodd">
        <g id="ribbon" transform="translate(-20.000000, -15.000000)" fill="#FFFFFF">
            <g id="Group">
                <g transform="translate(20.000000, 15.000000)">
                    <g id="logo-obw-mobile">
                        <path d="M32.2793149,21.2618182 C34.6550725,19.6872727 34.4125165,16.7954546 34.3673254,16.3936364 L34.3608696,16.3427273 C32.5135705,17.6627273 30.200527,17.7854546 27.7971014,17.7854546 C27.7971014,17.7854546 26.2993413,17.7781818 26.2108037,17.7781818 L25.4416338,17.7845454 C25.4416338,17.7845454 19.5096179,17.7654546 18.7422925,17.7654546 L16.5952569,17.7654546 L16.5961792,10.09 C16.5860343,9.88727276 16.5906456,9.51818186 16.5952569,9.11545458 L16.5980238,8.95454546 C16.6017128,8.56636361 16.6090909,8.12545458 16.598946,7.95636363 L16.5952569,7.45272728 C16.5934123,4.99636364 16.5906456,2.65727273 17.898419,0.670909095 L4.7911726,2.48689958e-14 C4.7911726,2.48689958e-14 3.55271368e-15,0.343636365 3.55271368e-15,6.10181819 L3.55271368e-15,20.9572728 C1.30131752,23.7036363 4.1511199,23.92 4.1511199,23.92 L4.1511199,23.9272728 L4.16218709,23.9263636 L4.16218709,29.5818182 L10.4778656,23.3272728 L32.2793149,21.2618182 Z M19.197892,10.0109091 C19.1895916,9.81636363 19.1951252,9.42181818 19.1997365,9.01545453 C19.2052701,8.53818183 19.2108037,8.04363633 19.197892,7.83636363 L19.197892,7.45363637 C19.1951252,4.78363637 19.1923583,2.85454546 20.6163373,1.41272728 C21.4316205,0.588181823 22.524506,0.133636365 23.6957839,0.133636365 C24.8218709,0.133636365 25.8843214,0.558181823 26.6885375,1.33181819 C27.5683795,2.17545455 27.3368906,3.79727273 27.1293808,5.22818182 L27.0860343,5.54909091 C27.0159421,6.04545455 27.1920948,6.5509091 27.55639,6.90363637 C27.9216074,7.25272727 28.4389987,7.41636364 28.9416338,7.3309091 C29.431357,7.25090909 30.1645586,7.14545455 30.8793149,7.14545455 C31.9638999,7.14545455 32.7349144,7.37909091 33.2393939,7.86272726 C34.9363636,9.49090908 34.972332,12.1754546 33.3205534,13.8490909 C32.068116,15.1154546 30.0815547,15.2190909 27.8017127,15.2190909 L26.5741765,15.2172727 C26.4570487,15.2109091 26.3353096,15.21 26.2144927,15.21 L25.470224,15.2181819 L25.2571805,15.2154546 C24.3515152,15.2154546 23.0981555,15.2109091 21.8687747,15.2072727 C20.9003952,15.2045454 19.9504612,15.2009091 19.197892,15.2 L19.197892,10.0109091 Z" id="Shape"></path>
                    </g>
                </g>
            </g>
        </g>
    </g>
</svg>