<?xml version="1.0" encoding="UTF-8"?>
<svg width="153px" height="16px" viewBox="0 0 153 16" version="1.1" xmlns="http://www.w3.org/2000/svg" xmlns:xlink="http://www.w3.org/1999/xlink">
    <!-- Generator: Sketch 52.6 (67491) - http://www.bohemiancoding.com/sketch -->
    <title>logo-tbt</title>
    <desc>Created with Sketch.</desc>
    <g id="Symbols" stroke="none" stroke-width="1" fill="none" fill-rule="evenodd">
        <g id="ribbon" transform="translate(-75.000000, -22.000000)" fill="#FFFFFF">
            <g id="Group">
                <g transform="translate(20.000000, 15.000000)">
                    <g id="logo-tbt" transform="translate(55.000000, 7.000000)">
                        <g id="better-traveller-logo-white">
                            <path d="M79.6087826,7.40444444 L78.375913,7.40444444 L78.375913,5.42222222 L79.7551304,5.31111111 L80.060687,2.91111111 L82.2736435,2.91111111 L82.2736435,5.31111111 L84.4333826,5.31111111 L84.4333826,7.4 L82.2736435,7.4 L82.2736435,11.0177778 C82.2736435,12.0355556 82.7264348,12.4528889 83.4355565,12.4528889 C83.7282522,12.4528889 84.0519913,12.36 84.2870348,12.2706667 L84.7043478,14.2177778 C84.2338174,14.3644444 83.577913,14.5466667 82.7086957,14.5466667 C80.478,14.5466667 79.6087826,13.1466667 79.6087826,11.0573333 L79.6087826,7.40444444 Z" id="Path"></path>
                            <path d="M1.23286957,6.89333333 L0,6.89333333 L0,4.91111111 L1.37921739,4.8 L1.68521739,2.4 L3.89817391,2.4 L3.89817391,4.8 L6.05791304,4.8 L6.05791304,6.88888889 L3.89817391,6.88888889 L3.89817391,10.5071111 C3.89817391,11.5244444 4.35052174,11.9422222 5.06008696,11.9422222 C5.34790435,11.9422222 5.67652174,11.8488889 5.91156522,11.76 L6.3279913,13.7066667 C5.85790435,13.8533333 5.20155652,14.0355556 4.33233913,14.0355556 C2.10208696,14.0355556 1.23242609,12.6355556 1.23242609,10.5466667 L1.23242609,6.89333333 L1.23286957,6.89333333 Z" id="Path"></path>
                            <path d="M86.19,5.31555556 L88.3674783,5.31555556 L88.5493043,6.89777778 L88.6202609,6.89777778 C89.2721739,5.68 90.2522609,5.09777778 91.1791304,5.09777778 C91.6891304,5.09777778 91.9951304,5.16888889 92.247913,5.28 L91.8133043,7.58666667 C91.4855739,7.49777778 91.2146087,7.44 90.8332174,7.44 C90.1635652,7.44 89.3298261,7.87511111 88.8553043,9.09333333 L88.8553043,14.3288889 L86.19,14.3288889 L86.19,5.31555556 Z" id="Path"></path>
                            <path d="M97.614,8.53333333 C97.5612261,7.73333333 97.1616522,7.22666667 96.1997478,7.22666667 C95.4369652,7.22666667 94.6786174,7.53333333 93.8049652,8.04444444 L92.8603565,6.28 C94.0045304,5.59111111 95.2906174,5.09777778 96.705313,5.09777778 C99.0069652,5.09777778 100.275313,6.40444444 100.275313,9.16888889 L100.275313,14.3288889 L98.0973913,14.3288889 L97.8978261,13.4 L97.8446087,13.4 C97.0818261,14.0711111 96.2303478,14.5466667 95.2147826,14.5466667 C93.5823391,14.5466667 92.5490348,13.3466667 92.5490348,11.8217778 C92.553913,9.93333333 94.0617391,8.89777778 97.614,8.53333333 M96.1283478,12.4755556 C96.7447826,12.4755556 97.143913,12.1866667 97.614,11.7106667 L97.614,10.1284444 C95.7114783,10.3813333 95.0950435,10.9284444 95.0950435,11.6177778 C95.0950435,12.2044444 95.4941739,12.4755556 96.1283478,12.4755556" id="Shape" fill-rule="nonzero"></path>
                            <path d="M101.605304,5.31555556 L104.288791,5.31555556 L105.450261,9.56888889 C105.685304,10.4577778 105.920791,11.4044444 106.155835,12.3511111 L106.226348,12.3511111 C106.443652,11.4044444 106.679139,10.4622222 106.914183,9.56888889 L108.093835,5.31555556 L110.652704,5.31555556 L107.716878,14.3288889 L104.634704,14.3288889 L101.605304,5.31555556 Z" id="Path"></path>
                            <path d="M115.623652,5.09777778 C118.182522,5.09777778 119.45087,6.96888889 119.45087,9.42222222 C119.45087,9.89333333 119.397652,10.3288889 119.34,10.5511111 L113.956174,10.5511111 C114.190774,11.9155556 115.100348,12.5155556 116.293304,12.5155556 C116.962957,12.5155556 117.579391,12.3155556 118.235739,11.9155556 L119.122696,13.5333333 C118.195826,14.1688889 117.003313,14.5511111 115.930096,14.5511111 C113.353043,14.5511111 111.379565,12.8044444 111.379565,9.82622222 C111.379565,6.89777778 113.463913,5.09777778 115.623652,5.09777778 Z M117.180261,8.89333333 C117.180261,7.85777778 116.746096,7.13333333 115.67687,7.13333333 C114.84313,7.13333333 114.115383,7.69777778 113.938435,8.89333333 L117.180261,8.89333333 Z" id="Shape" fill-rule="nonzero"></path>
                            <path d="M141.154252,5.09777778 C143.713565,5.09777778 144.981913,6.96888889 144.981913,9.42222222 C144.981913,9.89333333 144.928696,10.3288889 144.871043,10.5511111 L139.487217,10.5511111 C139.722261,11.9155556 140.631391,12.5155556 141.828783,12.5155556 C142.498435,12.5155556 143.11487,12.3155556 143.771217,11.9155556 L144.658174,13.5333333 C143.735739,14.1688889 142.538348,14.5511111 141.46513,14.5511111 C138.888522,14.5511111 136.915043,12.8044444 136.915043,9.82622222 C136.910609,6.89777778 138.994957,5.09777778 141.154252,5.09777778 Z M142.711304,8.89333333 C142.711304,7.85777778 142.276696,7.13333333 141.20747,7.13333333 C140.37373,7.13333333 139.646426,7.69777778 139.4646,8.89333333 L142.711304,8.89333333 Z" id="Shape" fill-rule="nonzero"></path>
                            <path d="M146.831217,5.31555556 L149.008696,5.31555556 L149.190078,6.89777778 L149.261035,6.89777778 C149.912948,5.68 150.893478,5.09777778 151.820348,5.09777778 C152.325913,5.09777778 152.636348,5.16888889 152.88913,5.28 L152.454522,7.58666667 C152.126348,7.49777778 151.855826,7.44 151.474435,7.44 C150.804783,7.44 149.971043,7.87511111 149.496522,9.09333333 L149.496522,14.3288889 L146.831217,14.3288889 L146.831217,5.31555556 Z" id="Path"></path>
                            <path d="M7.84956522,2.31555556 L10.3192957,2.31555556 L10.3192957,5.21333333 L10.2039913,6.71111111 C10.8248609,6.15555556 11.6497304,5.56444444 12.7761652,5.56444444 C14.5948696,5.56444444 15.3660783,6.84444444 15.3660783,8.93333333 L15.3660783,14.1244444 L12.8963478,14.1244444 L12.8963478,9.25777778 C12.8963478,8.04444444 12.5766,7.67555556 11.8714696,7.67555556 C11.2510435,7.67555556 10.8647739,7.96 10.3237304,8.48444444 L10.3237304,14.1288889 L7.84956522,14.1288889 L7.84956522,2.31555556 Z" id="Path"></path>
                            <path d="M20.8922609,5.56888889 C23.2608783,5.56888889 24.440087,7.30222222 24.440087,9.57777778 C24.440087,10.0133333 24.3917478,10.4177778 24.3385304,10.6226667 L19.3445217,10.6226667 C19.5613826,11.8848889 20.4044348,12.4404444 21.5131304,12.4404444 C22.134,12.4404444 22.706087,12.2537778 23.3136522,11.8848889 L24.1385217,13.3871111 C23.2826087,13.9782222 22.1699217,14.3293333 21.1805217,14.3293333 C18.7946087,14.3293333 16.9586087,12.7111111 16.9586087,9.94711111 C16.9586087,7.23555556 18.8921739,5.56888889 20.8922609,5.56888889 Z M22.338,9.08888889 C22.338,8.12888889 21.9344348,7.45333333 20.9410435,7.45333333 C20.1693913,7.45333333 19.4953043,7.97777778 19.3267826,9.08888889 L22.338,9.08888889 Z" id="Shape" fill-rule="nonzero"></path>
                            <path d="M43.1814783,5.56888889 C45.554087,5.56888889 46.7293043,7.30222222 46.7293043,9.57777778 C46.7293043,10.0133333 46.6805217,10.4177778 46.6273043,10.6226667 L41.6337391,10.6226667 C41.8510435,11.8848889 42.6936522,12.4404444 43.8023478,12.4404444 C44.4232174,12.4404444 44.9953043,12.2537778 45.603313,11.8848889 L46.4277391,13.3871111 C45.5718261,13.9782222 44.4591391,14.3293333 43.4697391,14.3293333 C41.0838261,14.3293333 39.2522609,12.7111111 39.2522609,9.94711111 C39.2478261,7.23555556 41.1813913,5.56888889 43.1814783,5.56888889 Z M44.6272174,9.08888889 C44.6272174,8.12888889 44.2236522,7.45333333 43.2302609,7.45333333 C42.4590522,7.45333333 41.7845217,7.97777778 41.616,9.08888889 L44.6272174,9.08888889 Z" id="Shape" fill-rule="nonzero"></path>
                            <path d="M48.4766087,7.70666667 L47.3324348,7.70666667 L47.3324348,5.87111111 L48.6096522,5.76888889 L48.897913,3.54666667 L50.9467826,3.54666667 L50.9467826,5.76888889 L52.9468696,5.76888889 L52.9468696,7.70666667 L50.9467826,7.70666667 L50.9467826,11.0577778 C50.9467826,12.0044444 51.368087,12.3911111 52.0244348,12.3911111 C52.2949565,12.3911111 52.5965217,12.3066667 52.8138261,12.2222222 L53.1996522,14.0271111 C52.7606087,14.16 52.1570348,14.3293333 51.3503478,14.3293333 C49.2837391,14.3293333 48.4766087,13.0315556 48.4766087,11.0937778 L48.4766087,7.70666667 Z" id="Path"></path>
                            <path d="M54.9114783,7.70666667 L53.7677478,7.70666667 L53.7677478,5.87111111 L55.0449652,5.76888889 L55.3287913,3.54666667 L57.3820957,3.54666667 L57.3820957,5.76888889 L59.3821826,5.76888889 L59.3821826,7.70666667 L57.3820957,7.70666667 L57.3820957,11.0577778 C57.3820957,12.0044444 57.8034,12.3911111 58.4597478,12.3911111 C58.7302696,12.3911111 59.0318348,12.3066667 59.2491391,12.2222222 L59.6349652,14.0271111 C59.2003565,14.16 58.5927913,14.3293333 57.7856609,14.3293333 C55.7190522,14.3293333 54.9119217,13.0315556 54.9119217,11.0937778 L54.9119217,7.70666667 L54.9114783,7.70666667 Z" id="Path"></path>
                            <path d="M64.2910435,5.56888889 C66.6592174,5.56888889 67.8388696,7.30222222 67.8388696,9.57777778 C67.8388696,10.0133333 67.790087,10.4177778 67.737313,10.6226667 L62.7433043,10.6226667 C62.9606087,11.8848889 63.8036609,12.4404444 64.9123565,12.4404444 C65.5327826,12.4404444 66.1048696,12.2537778 66.7128783,11.8848889 L67.5377478,13.3871111 C66.6813913,13.9782222 65.5687043,14.3293333 64.5797478,14.3293333 C62.1938348,14.3293333 60.3618261,12.7111111 60.3618261,9.94711111 C60.3573913,7.23555556 62.2909565,5.56888889 64.2910435,5.56888889 Z M65.7367826,9.08888889 C65.7367826,8.12888889 65.3332174,7.45333333 64.3402696,7.45333333 C63.5686174,7.45333333 62.894087,7.97777778 62.7255652,9.08888889 L65.7367826,9.08888889 Z" id="Shape" fill-rule="nonzero"></path>
                            <path d="M69.5551304,5.76888889 L71.5729565,5.76888889 L71.7414783,7.23555556 L71.808,7.23555556 C72.410687,6.10666667 73.3202609,5.56888889 74.1761739,5.56888889 C74.6462609,5.56888889 74.9345217,5.63555556 75.1695652,5.73777778 L74.766,7.87555556 C74.4644348,7.79155556 74.2116522,7.74222222 73.8568696,7.74222222 C73.236,7.74222222 72.459913,8.14666667 72.0253043,9.27555556 L72.0253043,14.1288889 L69.5551304,14.1288889 L69.5551304,5.76888889 Z" id="Path"></path>
                            <path d="M33.7930435,5.71111111 C33.7837304,5.71111111 33.7797391,5.71111111 33.7704261,5.71111111 C33.0431217,5.71111111 32.3517391,5.89333333 31.7481652,6.20888889 L31.7481652,2.45333333 C31.7481652,1.85777778 31.2292957,1.37333333 30.568513,1.37333333 C29.9254696,1.37333333 29.4066,1.85777778 29.4066,2.45333333 L29.4066,10.0711111 L29.4066,10.0755556 L29.4066,10.08 L29.4066,12.6222222 C29.3844261,14.0888889 29.0695565,15.3111111 28.3072174,15.7862222 C29.1054783,15.7151111 30.6483391,14.9155556 31.1055652,13.5066667 C31.8461739,14.0751111 32.7686087,14.4173333 33.7708696,14.4173333 C33.7757478,14.4173333 33.7841739,14.4173333 33.793487,14.4173333 C36.1971391,14.4173333 38.157313,12.4622222 38.157313,10.0751111 C38.1568696,7.66666667 36.1966957,5.71111111 33.7930435,5.71111111 M33.7930435,12.5333333 C32.4493043,12.5333333 31.353913,11.4355556 31.353913,10.0888889 C31.353913,8.74222222 32.4493043,7.64444444 33.7930435,7.64444444 C35.1363391,7.64444444 36.2321739,8.74222222 36.2321739,10.0888889 C36.2321739,11.4355556 35.1367826,12.5333333 33.7930435,12.5333333" id="Shape" fill-rule="nonzero"></path>
                            <path d="M126.910174,8.44888889 C126.48887,9.22666667 125.903035,9.07111111 126.08087,8.83555556 C126.28487,8.56 126.568696,7.56444444 126.38687,6.80444444 C126.205043,6.04444444 125.193913,4.48 124.391217,4.52 C123.584087,4.56 122.062957,6.41333333 121.934348,7.09333333 C121.810174,7.77333333 122.355209,8.32 122.701122,8.83555556 C123.073643,9.39111111 122.683383,9.70666667 122.315296,9.26222222 C122.199991,9.12444444 122.058078,8.97333333 121.91173,8.80888889 C122.009739,9.41733333 122.053643,10.044 122.1246,11.004 C122.270948,12.9862222 123.494948,14.3466667 125.126948,14.1422222 C127.79713,13.8088889 127.384696,11.2355556 127.238348,10.5022222 C127.118609,9.90666667 126.972261,9.35555556 126.910174,8.44888889 M124.000957,3.21333333 C124.102957,2.74666667 124.338443,2.10222222 124.732696,2.13777778 C125.122957,2.17777778 125.176174,2.92444444 125.171739,3.36 C125.708348,3.71111111 126.307043,4.38222222 126.67513,4.95555556 C126.919043,5.33777778 127.114174,5.74222222 127.211739,6.19555556 C127.526609,5.22666667 127.912435,4.09333333 127.668522,2.57333333 C127.446783,1.17777778 125.659565,-0.844444444 123.247043,0.382222222 C120.55513,1.75111111 120.630522,4.57333333 121.291304,6.52 C121.295739,6.52444444 121.295739,6.53333333 121.300174,6.53777778 C121.344965,6.03555556 121.521913,5.51111111 122.227043,4.68 C123.00313,3.77333333 123.535304,3.37333333 124.000957,3.21333333" id="Shape" fill-rule="nonzero"></path>
                            <path d="M134.294087,8.95155556 C134.263487,8.25777778 133.003565,6.21333333 132.214617,6.06266667 C131.420791,5.91155556 130.209652,7.32044444 129.92627,8.04933333 C129.642887,8.77822222 129.784357,9.80533333 129.952878,10.1071111 C130.094791,10.3648889 129.496539,10.4404444 129.186104,9.60933333 C128.999843,10.4982222 128.782539,11.0271111 128.587409,11.6 C128.343052,12.3066667 127.584704,14.8 130.18393,15.4933333 C131.771583,15.9204444 133.17253,14.7382222 133.585409,12.796 C133.784974,11.8537778 133.913583,11.2404444 134.094965,10.6493333 C133.926443,10.7911111 133.767235,10.9248889 133.633748,11.0448889 C133.208009,11.4364444 132.862539,11.072 133.310452,10.5737778 C133.71313,10.1066667 134.329565,9.63955556 134.294087,8.95155556 M133.912696,2.11555556 C131.69087,0.569333333 129.646435,2.32888889 129.234,3.68044444 C128.785643,5.156 129.012261,6.32933333 129.189209,7.33377778 C129.348861,6.89822222 129.597209,6.52488889 129.889904,6.17822222 C130.333383,5.65822222 131.020774,5.076 131.597296,4.80488889 C131.655391,4.37822222 131.806174,3.64044444 132.200426,3.65822222 C132.595122,3.67155556 132.74147,4.34711111 132.776948,4.82266667 C133.211557,5.04488889 133.686078,5.51155556 134.333557,6.52044444 C134.918948,7.436 135.020948,7.98266667 134.998774,8.48488889 L135.008087,8.46711111 C135.930522,6.62666667 136.391739,3.84 133.912696,2.11555556" id="Shape" fill-rule="nonzero"></path>
                        </g>
                    </g>
                </g>
            </g>
        </g>
    </g>
</svg>