<svg width="180" height="101" viewBox="0 0 180 101" xmlns="http://www.w3.org/2000/svg"><title>logo-obw/white</title><path d="M45.267 23.618c-2.156 0-3.234-1.339-3.234-4.016 0-2.61 1.078-3.916 3.234-3.916 2.156 0 3.236 1.305 3.239 3.916 0 2.68-1.08 4.019-3.239 4.016zM31.109 32.31c-1.922 0-2.962 1.034-3.12 3.1h5.998c.126-2.066-.832-3.1-2.873-3.1h-.005zm28.543 17.946c-2.156 0-3.234 1.305-3.234 3.916 0 2.68 1.078 4.02 3.234 4.02 2.156 0 3.236-1.34 3.24-4.02 0-2.61-1.08-3.916-3.24-3.916zM16.546 32.593a6.948 6.948 0 0 0-3.298.722v6.873a9.232 9.232 0 0 0 3.298.495c2.206 0 3.308-1.467 3.308-4.401 0-2.48-1.102-3.717-3.308-3.714v.025zM85.55 54.504c0 2.493.937 3.739 2.81 3.739.951.024 1.9-.125 2.798-.44v-5.84a5.904 5.904 0 0 0-2.799-.614c-1.869 0-2.805 1.052-2.809 3.155zM60.414 32.311c-1.922 0-2.964 1.034-3.126 3.1h6.009c.125-2.066-.834-3.1-2.878-3.1h-.005zm33.74 12.194h-3.017v4.896a6.715 6.715 0 0 0-2.813-.569c-3.85 0-5.778 1.91-5.781 5.732 0 4.147 2.01 6.219 6.028 6.216 1.884 0 3.76-.24 5.583-.717V44.505zm-19.241-15.22A5.568 5.568 0 0 0 71 31.08l-.445-1.795h-2.75v14.073h3.556v-9.42a4.643 4.643 0 0 1 3.55-1.795v-2.858zm0 17.1A5.578 5.578 0 0 0 71 48.18l-.445-1.795h-2.75v14.078h3.556v-9.425a4.643 4.643 0 0 1 3.55-1.785v-2.868zm-7.116-20.176h3.234v-8.58c.78-1 1.967-1.596 3.234-1.627v-2.606a5.074 5.074 0 0 0-3.566 1.632l-.405-1.632h-2.497V26.21zm-1.098 11.868c.85-5.736-1.108-8.606-5.875-8.61-4.767-.003-7.155 2.34-7.165 7.028 0 4.902 2.606 7.353 7.818 7.353 1.645.03 3.289-.107 4.905-.41v-2.889a23.45 23.45 0 0 1-4.356.406c-3.158 0-4.738-.968-4.738-2.903h9.396l.015.025zM59.632 60.73c4.316 0 6.473-2.174 6.473-6.522 0-4.349-2.157-6.524-6.473-6.528-4.312 0-6.466 2.176-6.463 6.528.004 4.351 2.158 6.526 6.463 6.522zm-10.528-.4l4.772-14.944h-3.689l-2.606 9.03-2.967-9.03H42.78l-3.046 9.04-2.592-9.035h-3.778l4.812 14.939 2.942.034 2.562-8.243 2.596 8.209h2.828zM24.38 36.485c0 4.902 2.608 7.353 7.823 7.353a24.157 24.157 0 0 0 4.886-.4v-2.889a23.41 23.41 0 0 1-4.357.406c-3.158 0-4.737-.968-4.737-2.903h9.396c.853-5.72-1.105-8.581-5.875-8.584-4.77-.004-7.157 2.339-7.16 7.027l.024-.01zm-8.105 7.23c4.728 0 7.091-2.44 7.091-7.32 0-4.5-2.27-6.75-6.809-6.75a7.912 7.912 0 0 0-3.313.668v-5.77h-3.55v18.33c2.148.561 4.36.844 6.581.841zm22.53-4.184c0 2.528 1.178 3.794 3.536 3.798h2.897v-2.82H44.06c-1.134 0-1.7-.658-1.7-1.977v-6.473h2.882v-2.814H41.97l-.54-2.275h-2.625v12.56zm6.463-26.407c-4.312 0-6.466 2.176-6.463 6.528.003 4.351 2.158 6.524 6.463 6.517 4.315 0 6.471-2.174 6.468-6.522-.003-4.349-2.16-6.523-6.468-6.523zm6.923 27.46c-1.132 0-1.706-.653-1.706-1.978v-6.463h2.883v-2.819h-3.269l-.539-2.275h-2.62v12.56c0 2.53 1.178 3.795 3.535 3.799h2.898v-2.819H52.17l.02-.005zm1.098-19.142c0 3.181 1.474 4.773 4.42 4.777a8.1 8.1 0 0 0 4.689-1.637l.405 1.627h2.522V13.396H62.09v8.575c-1.174 1.088-2.327 1.63-3.461 1.627-1.405 0-2.102-.712-2.102-2.127v-8.075h-3.24v8.046zm55.27 41.405v.435a7.037 7.037 0 0 1-6.176 6.987l-.35.035-66.116 6.344-23.835 23.934v-21.63l-3.956.382-.791.074h-.287A7.037 7.037 0 0 1 0 72.376V7.036A7.037 7.037 0 0 1 6.963 0l.885.05 73.25 3.787h.07a13.416 13.416 0 0 0-3.911 9.663v46.78h3.224V38.121h14.286c1.276.045 2.581 0 3.852 0a23.692 23.692 0 0 0 6.923-.78l2.943 24.695.099.816-.025-.005zm-8.707-44.748a2.2 2.2 0 0 1-2.547-2.473c.425-3.066 1.132-6.858-1.014-8.95a9.119 9.119 0 0 0-12.857.173c-3.115 3.204-2.967 7.506-2.967 13.1.05.84-.04 3.46 0 4.267V35.14c3.12 0 9.084.03 12.481.03.821 0 1.662-.03 2.498 0 5.38 0 10.463.281 13.584-2.923a9.119 9.119 0 0 0-.174-12.857c-2.15-2.092-5.934-1.776-8.99-1.271l-.014-.02zm20.051 6.048a7.418 7.418 0 0 1 1.528-.144c1.216 0 1.83.55 1.83 1.647 0 1.207-.564 1.82-1.677 1.82-.278 0-.554-.056-.81-.163v1.483h-.871v-4.643zm.87 2.413c.25.124.527.187.806.183.544 0 .816-.368.816-1.103a.82.82 0 0 0-.93-.915 3.55 3.55 0 0 0-.692.05v1.785zm5.024 1.483c-.794 0-1.193-.557-1.196-1.671 0-1.093.4-1.637 1.196-1.637.796 0 1.192.544 1.192 1.637s-.396 1.671-1.192 1.671zm0-4.074c-1.419 0-2.126.806-2.126 2.423s.712 2.418 2.126 2.418c1.415 0 2.122-.806 2.122-2.418s-.712-2.423-2.122-2.423zm7.942 0h-.88l-.885 2.868-.99-2.868h-.37l-.99 2.868-.884-2.868h-.88l1.557 4.821h.346l.99-3.002 1.038 3.002h.35l1.598-4.821zm3.53.761v-.732H134.1v4.827h3.17v-.777H135v-1.266h2.166v-.806H135v-1.211l2.27-.035zm1.484 0c.232-.023.465-.025.698-.005.578 0 .91.272.924.821 0 .569-.326.83-.93.83a4.09 4.09 0 0 1-.677-.044l-.015-1.602zm2.226 2.839a1.172 1.172 0 0 0-.455-.747 1.36 1.36 0 0 0 .707-1.31c0-1.024-.653-1.533-1.825-1.533a7.665 7.665 0 0 0-1.528.138v4.668h.88V27.05h.693c.39.06.548.406.623.742.063.337.156.668.277.99h1.048a5.336 5.336 0 0 1-.42-1.217v.005zm4.193-2.834v-.737h-3.175v4.827h3.175v-.777h-2.285v-1.266h2.166v-.806h-2.166v-1.211l2.285-.03zm1.43 3.284c.142.007.286.007.43 0 .385.027.758-.145.988-.455.26-.39.386-.853.356-1.32 0-1.04-.445-1.543-1.374-1.543h-.381l-.02 3.318zm-.812.771v-4.757h.09c.588 0 .988-.035 1.136-.035a2.126 2.126 0 0 1 1.598.618c.403.444.614 1.029.588 1.627 0 1.711-.806 2.582-2.393 2.582l-1.019-.035zm8.99-1.365c0 .495-.306.757-.845.757a4.49 4.49 0 0 1-.703-.045v-1.533h.693c.559.04.855.317.855.806v.015zm-.954-2.843c.494 0 .781.168.791.633 0 .494-.292.672-.801.712a5.187 5.187 0 0 1-.613 0V24.63a4.45 4.45 0 0 1 .628-.034l-.005-.015zm1.755 2.833a1.241 1.241 0 0 0-.643-1.206c.313-.216.482-.587.44-.964 0-.87-.553-1.247-1.547-1.247a7.418 7.418 0 0 0-1.375.119v4.564c.49.09.986.133 1.484.129 1.078 0 1.666-.47 1.671-1.405l-.03.01zm3.956-3.461h-.95l-1.117 2.012-1.093-2.012h-.989l1.608 2.863v1.978h.91v-1.978l1.631-2.863zm-39.372 15.191a6.31 6.31 0 0 0 1.948.282c1.596 0 2.392-.603 2.389-1.81 0-1.071-.623-1.607-1.87-1.607h-.989c-.47 0-.702-.213-.702-.643 0-.564.495-.846 1.45-.846a5.177 5.177 0 0 1 1.829.322v-.99a6.038 6.038 0 0 0-1.83-.276c-1.676 0-2.512.583-2.512 1.765 0 1.072.588 1.607 1.765 1.607h.99c.538 0 .81.213.81.643 0 .589-.445.88-1.325.88a5.534 5.534 0 0 1-1.948-.32v.988l-.005.005zm6.013-5.494h-1.068v5.776h1.073l-.005-5.776zm5.766 5.761v-5.751h-1.073s0 3.56.04 4.114c-.203-.38-2.612-4.114-2.612-4.114h-1.117v5.751h1.058s0-3.684-.025-4.203c.208.395 2.66 4.203 2.66 4.203h1.069zm5.44-3.254h-1.944v.816h.94v1.45c-.22.135-.475.198-.732.182-1.138 0-1.904-.766-1.904-2.062a1.87 1.87 0 0 1 1.978-2.037 3.462 3.462 0 0 1 1.632.46v-.99a3.382 3.382 0 0 0-1.622-.346c-1.82 0-3.046 1.143-3.056 2.967a2.65 2.65 0 0 0 2.927 2.849 3.65 3.65 0 0 0 1.76-.391l.02-2.898zm3.693.796s-.642-2.121-.726-2.472c-.085.336-.708 2.472-.708 2.472h1.434zm-1.617.836l-.494 1.642h-1.108l1.81-5.78h1.41l1.839 5.78h-1.162l-.495-1.642h-1.8zm4.135-3.956a9.173 9.173 0 0 1 1.834-.173c1.47 0 2.206.66 2.206 1.978 0 1.46-.675 2.192-2.023 2.196-.34 0-.676-.07-.989-.203v1.82h-1.048l.02-5.618zm1.048 2.908c.307.152.646.227.989.217.648 0 .989-.445.989-1.325a.989.989 0 0 0-1.118-1.127 4.703 4.703 0 0 0-.83.054l-.03 2.18zm6.058 1.805c-.947 0-1.421-.66-1.425-1.978 0-1.296.495-1.954 1.425-1.954s1.429.658 1.429 1.954c0 1.295-.495 1.978-1.43 1.978zm0-4.866c-1.685 0-2.527.964-2.527 2.893 0 1.923.85 2.888 2.527 2.888 1.676 0 2.541-.965 2.541-2.888 0-1.924-.845-2.893-2.541-2.893zm4.371.875c.275-.045.553-.065.83-.06.698 0 1.099.332 1.108.99.01.657-.39.989-1.122.989a5.153 5.153 0 0 1-.821-.055l.005-1.864zm2.695 3.432a1.4 1.4 0 0 0-.514-.9c.575-.312.91-.936.85-1.587 0-1.232-.786-1.845-2.205-1.845a9.054 9.054 0 0 0-1.84.173v5.637h1.054v-2.16c.247 0 .494.024.776.024h.07c.494.074.667.495.75.895.079.413.193.819.342 1.212h1.261a6.626 6.626 0 0 1-.495-1.484l-.049.035zm5.054-3.427v-.91h-3.793v5.78h3.793v-.924h-2.73V36.99h2.591v-.964h-2.59V34.57l2.729-.01zm-41.84 7.334h-1.073v5.8h1.073v-5.8zm5.583 5.79V41.89h-1.088s0 3.59.04 4.148c-.203-.38-2.631-4.148-2.631-4.148h-1.128v5.795h1.063s0-3.719-.024-4.243c.217.4 2.69 4.243 2.69 4.243h1.078zm5.068-5.78h-4.307v.934h1.598v4.846h1.058V42.84h1.627l.024-.935zm4.604.92v-.92h-3.798v5.79h3.798v-.92h-2.72v-1.528h2.602v-.964h-2.602v-1.484l2.72.025zm2.082-.05c.275-.045.553-.065.83-.06.708 0 1.109.337 1.114.99 0 .702-.391 1.013-1.123 1.013a4.752 4.752 0 0 1-.826-.054l.005-1.89zm2.7 3.461a1.39 1.39 0 0 0-.554-.9c.578-.314.914-.942.856-1.597 0-1.236-.786-1.86-2.21-1.86a9.366 9.366 0 0 0-1.85.179v5.632h1.063v-2.136c.247 0 .495.03.781.03h.07c.494.074.667.494.751.9.078.41.19.814.337 1.206h1.265a6.621 6.621 0 0 1-.494-1.483l-.015.03zm6.048 1.454V41.9h-1.088s0 3.59.045 4.143c-.203-.385-2.631-4.144-2.631-4.144h-1.128v5.791h1.063v-4.238c.213.4 2.68 4.238 2.68 4.238h1.059zm3.743-2.472s-.652-2.137-.732-2.473c-.084.336-.712 2.473-.712 2.473h1.444zm-1.627.845l-.494 1.647h-1.128l1.825-5.81h1.44l1.839 5.81h-1.167l-.495-1.647h-1.82zm7.576-4.173h-4.312v.934h1.597v4.851h1.054V42.82h1.661v-.93zm1.929 0h-1.073v5.805h1.073V41.89zm3.288 4.945c-.954 0-1.439-.673-1.439-2.023s.495-1.978 1.44-1.978c.944 0 1.448.658 1.448 1.978 0 1.32-.494 2.023-1.449 2.023zm0-4.945c-1.707 0-2.561.974-2.561 2.922 0 1.948.854 2.921 2.561 2.918 1.711 0 2.567-.973 2.567-2.918 0-1.945-.856-2.92-2.567-2.922zm8.115 5.78v-5.78h-1.078s0 3.59.04 4.144c-.203-.381-2.636-4.144-2.636-4.144h-1.152v5.795h1.068s0-3.714-.025-4.238c.218.396 2.69 4.238 2.69 4.238l1.093-.015zm3.763-2.472s-.648-2.127-.732-2.473c-.084.332-.702 2.473-.702 2.473h1.434zm-1.622.84l-.494 1.637h-1.133l1.82-5.785h1.41l1.84 5.785h-1.163l-.495-1.637h-1.785zm5.024.777V41.87h-1.073v5.785H180v-.835l-2.745-.005zm-57.318 3.817v5.82h1.059V53.98h2.62v-.989h-2.606v-1.483h2.75v-.925l-3.823.05zm6.76 4.896c-.96 0-1.429-.673-1.424-2.013.005-1.34.495-1.948 1.44-1.943.944.005 1.423.658 1.413 1.978-.01 1.32-.494 2.003-1.434 1.978h.005zm-.005-4.88c-1.697 0-2.55.962-2.556 2.887 0 1.929.84 2.898 2.532 2.908 1.69.01 2.541-.955 2.551-2.883.01-1.929-.835-2.903-2.527-2.908v-.005zm3.051-.025V53.9c0 1.8.851 2.537 2.176 2.537 1.326 0 2.28-.781 2.28-2.542v-3.259h-1.039v3.328c0 1.118-.45 1.637-1.201 1.637-.752 0-1.172-.494-1.172-1.637v-3.328l-1.044-.014zm10.098 5.83v-5.82h-1.088s0 3.604.04 4.158c-.208-.38-2.646-4.159-2.646-4.159H135v5.816h1.073v-4.253c.208.396 2.69 4.253 2.69 4.253l1.078.005zm1.86-.93c.148 0 .321.025.494.025a1.37 1.37 0 0 0 1.167-.554 2.601 2.601 0 0 0 .435-1.587c0-1.252-.549-1.86-1.666-1.86l-.455.03.025 3.946zm-.99.93v-5.771h.104c.712-.03 1.177-.04 1.375-.04a2.557 2.557 0 0 1 1.924.742c.487.54.74 1.252.702 1.978 0 2.067-.99 3.11-2.883 3.11l-1.221-.02zm7.339-2.502s-.648-2.127-.727-2.473c-.084.336-.712 2.473-.712 2.473h1.439zm-1.622.845l-.494 1.647h-1.118l1.82-5.8h1.414l1.845 5.8h-1.163l-.494-1.647h-1.81zm2.804-4.154v.935h1.592v4.851h1.058v-4.851h1.617v-.935h-4.267zm5 5.816h1.077v-5.82h-1.073l-.005 5.82zm4.395-.915c-.954 0-1.434-.668-1.434-2.013 0-1.345.495-1.978 1.434-1.978.94 0 1.44.658 1.44 1.978 0 1.32-.495 2.013-1.44 2.013zm0-4.9c-1.704 0-2.554.97-2.551 2.912.003 1.942.854 2.91 2.551 2.908 1.708 0 2.56-.97 2.557-2.908-.003-1.939-.855-2.91-2.557-2.913zm8.224 5.82v-5.83h-1.093s0 3.614.045 4.173c-.203-.386-2.65-4.174-2.65-4.174h-1.133v5.83h1.073V52.2c.212.4 2.7 4.263 2.7 4.263h1.058z" fill="#FFF"/></svg>