<svg width="153" height="16" viewBox="0 0 153 16" xmlns="http://www.w3.org/2000/svg"><title>logo-tbt</title><g fill="#FFF" fill-rule="evenodd"><path d="M79.609 7.404h-1.233V5.422l1.38-.11.305-2.4h2.213v2.4h2.16V7.4h-2.16v3.618c0 1.018.452 1.435 1.162 1.435.292 0 .616-.093.851-.182l.417 1.947a6.426 6.426 0 0 1-1.995.329c-2.231 0-3.1-1.4-3.1-3.49V7.404zM1.233 6.893H0V4.911L1.38 4.8l.305-2.4h2.213v2.4h2.16v2.089h-2.16v3.618c0 1.017.453 1.435 1.162 1.435.288 0 .617-.093.852-.182l.416 1.947a6.424 6.424 0 0 1-1.996.329c-2.23 0-3.1-1.4-3.1-3.49V6.894zM86.19 5.316h2.177l.182 1.582h.071c.652-1.218 1.632-1.8 2.56-1.8.51 0 .815.07 1.068.182l-.435 2.307a3.43 3.43 0 0 0-.98-.147c-.67 0-1.503.435-1.978 1.653v5.236H86.19V5.316z"/><path d="M97.614 8.533c-.053-.8-.452-1.306-1.414-1.306-.763 0-1.521.306-2.395.817L92.86 6.28c1.145-.689 2.43-1.182 3.845-1.182 2.302 0 3.57 1.306 3.57 4.07v5.16h-2.178l-.2-.928h-.052c-.763.671-1.615 1.147-2.63 1.147-1.633 0-2.666-1.2-2.666-2.725.005-1.889 1.513-2.924 5.065-3.289m-1.486 3.943c.617 0 1.016-.29 1.486-.765v-1.583c-1.903.253-2.519.8-2.519 1.49 0 .586.4.858 1.033.858" fill-rule="nonzero"/><path d="M101.605 5.316h2.684l1.161 4.253c.235.889.47 1.835.706 2.782h.07c.218-.947.453-1.889.688-2.782l1.18-4.253h2.559l-2.936 9.013h-3.082l-3.03-9.013z"/><path d="M115.624 5.098c2.559 0 3.827 1.87 3.827 4.324 0 .471-.053.907-.111 1.13h-5.384c.235 1.364 1.144 1.964 2.337 1.964.67 0 1.286-.2 1.943-.6l.887 1.617c-.927.636-2.12 1.018-3.193 1.018-2.577 0-4.55-1.747-4.55-4.725 0-2.928 2.084-4.728 4.244-4.728zm1.556 3.795c0-1.035-.434-1.76-1.503-1.76-.834 0-1.562.565-1.739 1.76h3.242zm23.974-3.795c2.56 0 3.828 1.87 3.828 4.324 0 .471-.053.907-.111 1.13h-5.384c.235 1.364 1.144 1.964 2.342 1.964.67 0 1.286-.2 1.942-.6l.887 1.617c-.922.636-2.12 1.018-3.193 1.018-2.576 0-4.55-1.747-4.55-4.725-.004-2.928 2.08-4.728 4.24-4.728zm1.557 3.795c0-1.035-.434-1.76-1.504-1.76-.833 0-1.56.565-1.742 1.76h3.246z" fill-rule="nonzero"/><path d="M146.831 5.316h2.178l.181 1.582h.071c.652-1.218 1.632-1.8 2.56-1.8.505 0 .815.07 1.068.182l-.434 2.307a3.433 3.433 0 0 0-.98-.147c-.67 0-1.504.435-1.978 1.653v5.236h-2.666V5.316zm-138.981-3h2.47v2.897l-.116 1.498c.62-.555 1.446-1.147 2.572-1.147 1.819 0 2.59 1.28 2.59 3.37v5.19h-2.47V9.258c0-1.214-.32-1.582-1.025-1.582-.62 0-1.006.284-1.547.808v5.645H7.85V2.316z"/><path d="M20.892 5.569c2.369 0 3.548 1.733 3.548 4.009 0 .435-.048.84-.101 1.045h-4.994c.216 1.262 1.06 1.817 2.168 1.817.621 0 1.193-.186 1.8-.555l.826 1.502c-.856.591-1.97.942-2.958.942-2.386 0-4.222-1.618-4.222-4.382 0-2.711 1.933-4.378 3.933-4.378zm1.446 3.52c0-.96-.404-1.636-1.397-1.636-.772 0-1.446.525-1.614 1.636h3.011zm20.843-3.52c2.373 0 3.548 1.733 3.548 4.009 0 .435-.048.84-.102 1.045h-4.993c.217 1.262 1.06 1.817 2.168 1.817.621 0 1.193-.186 1.801-.555l.825 1.502c-.856.591-1.969.942-2.958.942-2.386 0-4.218-1.618-4.218-4.382-.004-2.711 1.93-4.378 3.93-4.378zm1.446 3.52c0-.96-.403-1.636-1.397-1.636-.77 0-1.445.525-1.614 1.636h3.011z" fill-rule="nonzero"/><path d="M48.477 7.707h-1.145V5.87l1.278-.102.288-2.222h2.049v2.222h2v1.938h-2v3.35c0 .947.421 1.334 1.077 1.334.271 0 .573-.084.79-.169l.386 1.805c-.44.133-1.043.302-1.85.302-2.066 0-2.873-1.297-2.873-3.235V7.707zm6.434 0h-1.143V5.87l1.277-.102.284-2.222h2.053v2.222h2v1.938h-2v3.35c0 .947.421 1.334 1.078 1.334.27 0 .572-.084.79-.169l.385 1.805a6.04 6.04 0 0 1-1.85.302c-2.066 0-2.873-1.297-2.873-3.235V7.707z"/><path d="M64.291 5.569c2.368 0 3.548 1.733 3.548 4.009 0 .435-.049.84-.102 1.045h-4.994c.218 1.262 1.06 1.817 2.17 1.817.62 0 1.192-.186 1.8-.555l.825 1.502c-.857.591-1.97.942-2.958.942-2.386 0-4.218-1.618-4.218-4.382-.005-2.711 1.929-4.378 3.929-4.378zm1.446 3.52c0-.96-.404-1.636-1.397-1.636-.771 0-1.446.525-1.614 1.636h3.01z" fill-rule="nonzero"/><path d="M69.555 5.769h2.018l.168 1.467h.067c.603-1.13 1.512-1.667 2.368-1.667.47 0 .759.067.994.169l-.404 2.138a3.112 3.112 0 0 0-.91-.134c-.62 0-1.396.405-1.83 1.534v4.853h-2.47v-8.36z"/><path d="M33.793 5.711h-.023a4.36 4.36 0 0 0-2.022.498V2.453c0-.595-.519-1.08-1.18-1.08-.643 0-1.161.485-1.161 1.08v10.169c-.023 1.467-.337 2.69-1.1 3.164.798-.07 2.341-.87 2.799-2.28.74.57 1.663.911 2.665.911h.022c2.404 0 4.364-1.955 4.364-4.342a4.37 4.37 0 0 0-4.364-4.364m0 6.822a2.446 2.446 0 0 1-2.44-2.444 2.446 2.446 0 0 1 2.44-2.445 2.446 2.446 0 0 1 2.44 2.445 2.446 2.446 0 0 1-2.44 2.444m93.117-4.084c-.421.778-1.007.622-.83.387.205-.276.489-1.272.307-2.032s-1.193-2.324-1.996-2.284c-.807.04-2.328 1.893-2.457 2.573-.124.68.421 1.227.767 1.743.373.555-.018.87-.386.426-.115-.138-.257-.289-.403-.453.098.608.142 1.235.213 2.195.146 1.982 1.37 3.343 3.002 3.138 2.67-.333 2.258-2.906 2.111-3.64-.12-.595-.266-1.146-.328-2.053m-2.909-5.236c.102-.466.337-1.11.732-1.075.39.04.443.786.439 1.222.536.351 1.135 1.022 1.503 1.596.244.382.44.786.537 1.24.315-.97.7-2.103.457-3.623-.222-1.395-2.01-3.417-4.422-2.19-2.692 1.368-2.616 4.19-1.956 6.137.005.004.005.013.01.018.044-.502.22-1.027.926-1.858.776-.907 1.308-1.307 1.774-1.467m10.293 5.739c-.03-.694-1.29-2.739-2.08-2.89-.793-.15-2.004 1.258-2.288 1.987-.283.73-.142 1.756.027 2.058.142.258-.456.333-.767-.498-.186.89-.403 1.418-.599 1.991-.244.707-1.002 3.2 1.597 3.893 1.588.427 2.989-.755 3.401-2.697.2-.942.329-1.556.51-2.147a18.14 18.14 0 0 0-.461.396c-.426.391-.771.027-.324-.471.403-.467 1.02-.934.984-1.622m-.381-6.836c-2.222-1.547-4.267.213-4.679 1.564-.448 1.476-.222 2.65-.045 3.654.16-.436.408-.81.7-1.156.444-.52 1.132-1.102 1.708-1.373.058-.427.21-1.165.603-1.147.395.014.541.69.577 1.165.435.222.91.689 1.557 1.697.585.916.687 1.463.665 1.965l.01-.018c.922-1.84 1.383-4.627-1.096-6.351" fill-rule="nonzero"/></g></svg>