<svg width="35" height="30" viewBox="0 0 35 30" xmlns="http://www.w3.org/2000/svg"><title>logo-obw-mobile</title><path d="M32.28 21.262c2.375-1.575 2.133-4.467 2.087-4.868l-.006-.051c-1.847 1.32-4.16 1.442-6.564 1.442l-1.586-.007-.77.007s-5.931-.02-6.699-.02h-2.147l.001-7.675c-.01-.203-.005-.572 0-.975l.002-.16c.004-.389.011-.83 0-.999l-.003-.503c-.002-2.457-.004-4.796 1.303-6.782L4.791 0S0 .344 0 6.102v14.855c1.301 2.747 4.151 2.963 4.151 2.963v.007h.011v5.655l6.316-6.255 21.801-2.065zM19.197 10.01c-.008-.195-.003-.59.002-.996.005-.477.01-.971-.002-1.179v-.382c-.003-2.67-.006-4.6 1.418-6.041a4.296 4.296 0 0 1 3.08-1.28c1.126 0 2.188.425 2.993 1.199.88.843.648 2.465.44 3.896l-.043.321c-.07.496.106 1.002.47 1.355.366.349.883.512 1.386.427.49-.08 1.223-.186 1.937-.186 1.085 0 1.856.234 2.36.718a4.195 4.195 0 0 1 .082 5.986c-1.253 1.266-3.24 1.37-5.52 1.37l-1.227-.002a6.703 6.703 0 0 0-.36-.007l-.744.008-.213-.003c-.905 0-2.159-.004-3.388-.008l-2.671-.007v-5.19z" fill="#FFF" fill-rule="evenodd"/></svg>