<svg xmlns="http://www.w3.org/2000/svg" viewBox="0 0 363.97 203.42"><defs><style>.cls-1{fill:#d34f1d;}.cls-2{fill:#7e8283;}</style></defs><title>OBW_Logo_HrzOrange</title><g id="Layer_2" data-name="Layer 2"><g id="OBW_Horizontal_Logo_Solid" data-name="OBW Horizontal Logo_Solid"><path class="cls-1" d="M91.54,47.76Q85,47.76,85,39.64q0-7.92,6.54-7.92t6.55,7.92q0,8.13-6.55,8.12M62.91,65.34q-5.83,0-6.31,6.27H68.73q.38-6.27-5.81-6.27m57.71,36.29q-6.54,0-6.54,7.92,0,8.13,6.54,8.13t6.55-8.13q0-7.92-6.55-7.92M33.46,65.91a14.05,14.05,0,0,0-6.67,1.46V81.27a18.67,18.67,0,0,0,6.67,1q6.69,0,6.69-8.9,0-7.52-6.69-7.51M173,110.22q0,7.56,5.68,7.56a15.85,15.85,0,0,0,5.66-.89V105.08a11.94,11.94,0,0,0-5.66-1.24q-5.67,0-5.68,6.38M122.17,65.34q-5.83,0-6.32,6.27H128q.38-6.27-5.82-6.27M190.4,90h-6.1v9.9a13.58,13.58,0,0,0-5.69-1.15q-11.68,0-11.69,11.59,0,12.58,12.19,12.57a44.58,44.58,0,0,0,11.29-1.45ZM151.49,59.22a11.26,11.26,0,0,0-7.91,3.63l-.9-3.63h-5.56V87.68h7.19V68.63A9.39,9.39,0,0,1,151.49,65Zm0,34.58a11.28,11.28,0,0,0-7.91,3.63l-.9-3.63h-5.56v28.47h7.19V103.21a9.39,9.39,0,0,1,7.18-3.61ZM137.1,53h6.54V35.65a8.56,8.56,0,0,1,6.54-3.29V27.09a10.26,10.26,0,0,0-7.21,3.3l-.82-3.3H137.1Zm-2.22,24Q137.46,59.6,123,59.59T108.51,73.8q0,14.87,15.81,14.87a48.81,48.81,0,0,0,9.92-.83V82a47.42,47.42,0,0,1-8.81.82q-9.58,0-9.58-5.87h19m-14.26,45.86q13.09,0,13.09-13.19t-13.09-13.2q-13.08,0-13.07,13.2t13.07,13.19M99.3,122l9.65-30.22h-7.46l-5.27,18.26-6-18.26H86.51l-6.16,18.28L75.11,91.79H67.47L77.2,122l5.95.07,5.18-16.67L93.58,122Zm-50-48.22q0,14.87,15.82,14.87A48.85,48.85,0,0,0,75,87.84V82a47.47,47.47,0,0,1-8.81.82q-9.58,0-9.58-5.87h19Q78.2,59.6,63.73,59.59T49.25,73.8M32.91,88.4q14.34,0,14.34-14.8,0-13.65-13.77-13.65a16,16,0,0,0-6.7,1.35V49.63H19.6V86.7a52.51,52.51,0,0,0,13.31,1.7m45.56-8.46q0,7.67,7.15,7.68h5.86v-5.7H89.1q-3.44,0-3.44-4V64.83h5.83V59.14H84.87l-1.09-4.6H78.47Zm13.07-53.4q-13.08,0-13.07,13.2T91.54,52.92q13.09,0,13.08-13.19T91.54,26.54m14,55.53c-2.29,0-3.45-1.32-3.45-4V65h5.83v-5.7h-6.61l-1.09-4.6h-5.3v25.4q0,7.67,7.15,7.68h5.86v-5.7H105.5m2.26-38.72q0,9.65,8.94,9.66a16.38,16.38,0,0,0,9.48-3.31L127,53h5.1V27.09h-6.54V44.43q-3.56,3.3-7,3.29c-2.84,0-4.25-1.44-4.25-4.3V27.09h-6.55Zm111.77,83.73c0,.29,0,.58,0,.88a14.23,14.23,0,0,1-12.49,14.13l-.71.07L72.63,155l-48.2,48.4V159.66l-8,.77-1.6.15h-.58A14.23,14.23,0,0,1,0,146.36V14.23A14.23,14.23,0,0,1,14.08,0l1.79.1L164,7.76h.14a27.13,27.13,0,0,0-7.91,19.54V121.9h6.52V77.09l23.8,0c1.62,0,3.46,0,5.09,0,2.58.09,5.22,0,7.79,0a47.91,47.91,0,0,0,14-1.58l5.95,49.94.2,1.65M201.92,36.6a4.45,4.45,0,0,1-5.15-5c.86-6.2,2.29-13.87-2.05-18.1a18.44,18.44,0,0,0-26,.35c-6.3,6.48-6,15.18-6,26.49.1,1.7-.08,7,0,8.63V71.06c6.31,0,18.37.06,25.24.06,1.66,0,3.36-.06,5.05,0,10.88,0,21.16.57,27.47-5.91a18.44,18.44,0,0,0-.35-26c-4.35-4.23-12-3.59-18.18-2.57"/><path class="cls-2" d="M242.47,48.83a15,15,0,0,1,3.09-.29c2.46,0,3.7,1.11,3.7,3.33,0,2.44-1.14,3.68-3.39,3.68a4.26,4.26,0,0,1-1.64-.33v3h-1.76Zm1.76,4.88a3.57,3.57,0,0,0,1.63.37q1.65,0,1.65-2.23A1.66,1.66,0,0,0,245.63,50a7.18,7.18,0,0,0-1.4.1Zm10.16,3q-2.41,0-2.42-3.38c0-2.21.81-3.31,2.42-3.31s2.41,1.1,2.41,3.31-.8,3.38-2.41,3.38m0-8.24c-2.87,0-4.3,1.63-4.3,4.9s1.44,4.89,4.3,4.89,4.29-1.63,4.29-4.89-1.44-4.9-4.29-4.9m16.06,0h-1.78l-1.79,5.8-2-5.8h-.75l-2,5.8-1.79-5.8h-1.78l3.15,9.75h.7l2-6.07,2.1,6.07h.71Zm7.14,1.54V48.53h-6.41v9.76h6.41V56.72H273V54.16h4.38V52.53H273V50.08Zm3,0A7.45,7.45,0,0,1,282,50c1.17,0,1.84.55,1.87,1.66h0c0,1.15-.66,1.68-1.88,1.68a8.27,8.27,0,0,1-1.37-.09Zm4.5,5.74a2.37,2.37,0,0,0-.92-1.51,2.75,2.75,0,0,0,1.43-2.65c0-2.07-1.32-3.1-3.69-3.1a15.5,15.5,0,0,0-3.09.28v9.44h1.78V55.87h0V54.7c.42,0,.85,0,1.3,0H282c.79.12,1.11.82,1.26,1.5a11.94,11.94,0,0,0,.56,2h2.12a10.79,10.79,0,0,1-.85-2.46m8.48-5.72V48.53h-6.42v9.76h6.42V56.72h-4.62V54.16h4.38V52.53h-4.38V50.08Zm2.89,6.64a8.46,8.46,0,0,0,.87,0,2.29,2.29,0,0,0,2-.92,4.32,4.32,0,0,0,.72-2.67c0-2.1-.9-3.12-2.78-3.12l-.77,0Zm-1.64,1.56V48.6H295c1.19,0,2-.07,2.3-.07a4.3,4.3,0,0,1,3.23,1.25,4.6,4.6,0,0,1,1.19,3.29c0,3.46-1.63,5.22-4.84,5.22ZM313,55.46c0,1-.62,1.53-1.71,1.53a9.08,9.08,0,0,1-1.42-.09V53.8c.28,0,.82,0,1.4,0,1.13.08,1.73.64,1.73,1.63m-1.93-5.72c1,0,1.58.34,1.6,1.28h0c0,1-.59,1.36-1.62,1.44a10.49,10.49,0,0,1-1.24,0V49.81a9,9,0,0,1,1.27-.07m3.54,5.7h0A2.51,2.51,0,0,0,313.32,53a2.09,2.09,0,0,0,.89-1.95h0c0-1.76-1.12-2.52-3.13-2.52a15,15,0,0,0-2.78.24V58a15.92,15.92,0,0,0,3,.26c2.18,0,3.37-.95,3.38-2.84h0Zm8-7h-1.92l-2.26,4.07-2.21-4.07h-2l3.25,5.79v4h1.84v-4ZM243,79.16a12.76,12.76,0,0,0,3.94.57q4.84,0,4.83-3.66,0-3.25-3.78-3.25h-2c-.95,0-1.42-.43-1.42-1.3,0-1.14,1-1.71,2.93-1.71a10.47,10.47,0,0,1,3.7.65v-2a12.21,12.21,0,0,0-3.7-.56c-3.39,0-5.08,1.18-5.08,3.57q0,3.25,3.57,3.25h2c1.09,0,1.64.43,1.64,1.3,0,1.19-.9,1.78-2.68,1.78a11.19,11.19,0,0,1-3.94-.65v2m12.15-11.1H253V79.73h2.17ZM266.82,79.7V68.07h-2.17s0,7.2.08,8.32c-.41-.77-5.28-8.32-5.28-8.32h-2.26V79.7h2.14s0-7.45-.05-8.5c.42.8,5.38,8.5,5.38,8.5Zm11-6.58h-3.93v1.65h1.9V77.7a2.51,2.51,0,0,1-1.48.37c-2.3,0-3.85-1.55-3.85-4.17a3.78,3.78,0,0,1,4-4.12,7,7,0,0,1,3.3.93v-2a6.84,6.84,0,0,0-3.28-.7c-3.68,0-6.16,2.31-6.18,6a5.36,5.36,0,0,0,5.92,5.76,7.38,7.38,0,0,0,3.56-.79Zm7.47,1.61s-1.3-4.29-1.47-5h0c-.17.68-1.43,5-1.43,5Zm-3.27,1.69-1,3.32h-2.24l3.66-11.69h2.85l3.72,11.69h-2.35l-1-3.32Zm8.36-8a18.55,18.55,0,0,1,3.71-.35q4.46,0,4.46,4,0,4.43-4.09,4.44a5.06,5.06,0,0,1-2-.41v3.68h-2.12Zm2.12,5.88a4.25,4.25,0,0,0,2,.44c1.31,0,2-.9,2-2.68a2,2,0,0,0-2.26-2.28,9.51,9.51,0,0,0-1.68.11Zm12.25,3.65q-2.87,0-2.88-4c0-2.62,1-3.95,2.88-3.95s2.89,1.33,2.89,3.95-1,4-2.89,4m0-9.84q-5.11,0-5.11,5.85c0,3.89,1.72,5.84,5.11,5.84s5.14-1.95,5.14-5.84-1.71-5.85-5.14-5.85m8.84,1.77a9.33,9.33,0,0,1,1.68-.12c1.41,0,2.22.67,2.24,2s-.79,2-2.27,2a10.42,10.42,0,0,1-1.66-.11Zm5.45,6.94A2.83,2.83,0,0,0,318,75a3.31,3.31,0,0,0,1.72-3.21h0c0-2.49-1.59-3.73-4.46-3.73a18.31,18.31,0,0,0-3.72.35v11.4h2.13V75.44c.5,0,1,.05,1.57.05h.14c1,.15,1.35,1,1.52,1.81a14.46,14.46,0,0,0,.69,2.45h2.55a13.4,13.4,0,0,1-1-3m10.12-6.86V68.05h-7.67V79.74h7.67V77.87h-5.52V74.8h5.24V72.85h-5.24V69.91ZM244.65,84.72h-2.17V96.45h2.17Zm11.29,11.71V84.71h-2.2s0,7.26.08,8.39c-.41-.77-5.32-8.39-5.32-8.39h-2.28V96.43h2.15s0-7.52-.05-8.58c.44.81,5.44,8.58,5.44,8.58Zm10.25-11.69h-8.71v1.89h3.23v9.8h0v0h2.14v0h0v-9.8h3.29Zm9.31,1.86V84.74h-7.68V96.45h7.68V94.59H270V91.5h5.26V89.55H270v-3Zm4.21-.1a9.23,9.23,0,0,1,1.68-.12c1.43,0,2.24.68,2.25,2h0c0,1.42-.79,2.05-2.27,2.05a9.61,9.61,0,0,1-1.67-.11Zm5.46,7a2.81,2.81,0,0,0-1.12-1.82,3.34,3.34,0,0,0,1.73-3.23h0c0-2.5-1.59-3.76-4.47-3.76a18.94,18.94,0,0,0-3.74.36V96.44h2.15V92.12c.5,0,1,.06,1.58.06h.14c1,.15,1.35,1,1.52,1.82a14.92,14.92,0,0,0,.68,2.44h2.56a13.39,13.39,0,0,1-1-3m12.2,3V84.73h-2.2s0,7.26.09,8.38c-.41-.78-5.32-8.38-5.32-8.38h-2.28V96.44h2.15s0-7.51,0-8.57c.43.81,5.42,8.57,5.42,8.57Zm7.57-5s-1.32-4.32-1.48-5h0c-.17.68-1.44,5-1.44,5Zm-3.29,1.71-1,3.33H298.4l3.69-11.75H305l3.72,11.75h-2.36l-1-3.33ZM317,84.71h-8.72v1.89h3.23v9.81h0v0h2.13v0h0V86.59H317Zm3.9,0h-2.17V96.45h2.17Zm6.65,10c-1.93,0-2.91-1.36-2.91-4.09s1-4,2.91-4,2.93,1.33,2.93,4-1,4.09-2.93,4.09m0-10q-5.18,0-5.18,5.91t5.18,5.9q5.19,0,5.19-5.9t-5.19-5.91m16.41,11.69V84.71h-2.18s0,7.26.08,8.38c-.41-.77-5.33-8.38-5.33-8.38H334.2V96.43h2.16s0-7.51-.05-8.57c.44.8,5.44,8.57,5.44,8.57Zm7.61-5s-1.31-4.3-1.48-5h0c-.17.67-1.42,5-1.42,5Zm-3.28,1.7-1,3.31H345l3.68-11.7h2.85l3.72,11.7h-2.35l-1-3.31Zm10.16,1.57v-10h-2.17v11.7H364V94.68Zm-115.91,7.72v11.77h2.14v-5h5.3v-2h-5.27v-3h5.56v-1.87Zm13.67,9.9c-1.94,0-2.89-1.36-2.88-4.07s1-3.94,2.91-3.93,2.88,1.33,2.86,4-1,4.05-2.9,4m0-9.87q-5.15,0-5.17,5.84c0,3.9,1.7,5.86,5.12,5.88s5.14-1.93,5.16-5.83-1.69-5.87-5.11-5.88m6.17-.06V109c0,3.64,1.72,5.13,4.4,5.13s4.61-1.58,4.61-5.14v-6.59h-2.1v6.73c0,2.26-.91,3.31-2.43,3.31s-2.37-1-2.37-3.31v-6.73Zm20.42,11.79V102.39h-2.2s0,7.29.08,8.41c-.42-.77-5.35-8.41-5.35-8.41H273v11.76h2.17s0-7.55,0-8.6c.42.8,5.44,8.6,5.44,8.6Zm3.76-1.88c.3,0,.65.05,1,.05a2.77,2.77,0,0,0,2.36-1.12,5.26,5.26,0,0,0,.88-3.21c0-2.53-1.11-3.76-3.37-3.76l-.92.06Zm-2,1.88V102.49h.21c1.44-.06,2.38-.08,2.78-.08a5.17,5.17,0,0,1,3.89,1.5,5.54,5.54,0,0,1,1.42,4c0,4.18-2,6.29-5.83,6.29Zm14.84-5.06s-1.31-4.3-1.47-5h0c-.17.68-1.44,5-1.44,5Zm-3.28,1.71-1,3.33h-2.26l3.68-11.73h2.86l3.73,11.73h-2.35l-1-3.33Zm5.67-8.4v1.89H305v9.81h0v0h2.14v0h0V104.3h3.27v-1.89Zm10.11,11.76h2.18V102.4H311.9Zm8.89-1.85c-1.93,0-2.9-1.35-2.9-4.07s1-4,2.9-4,2.91,1.33,2.91,4-1,4.07-2.91,4.07m0-9.91q-5.17,0-5.16,5.89t5.16,5.88q5.18,0,5.17-5.88t-5.17-5.89m16.63,11.77V102.39h-2.21s0,7.31.09,8.44c-.41-.78-5.36-8.44-5.36-8.44h-2.29v11.79h2.17s0-7.56,0-8.62c.43.81,5.46,8.62,5.46,8.62Z"/></g></g></svg>